<svg width="193" height="85" viewBox="0 0 193 85" fill="none" xmlns="http://www.w3.org/2000/svg">
<g clip-path="url(#clip0_201_122)">
<rect x="11.5" y="1.5" width="170" height="82" stroke="white" stroke-width="3"/>
<g filter="url(#filter0_d_201_122)">
<path d="M37.248 43.016C37.248 47.24 35.616 51.704 32.208 54.968C28.944 58.088 24.336 59.72 19.584 59.72C14.832 59.72 10.224 58.088 6.96 54.968C3.552 51.704 1.92 47.24 1.92 43.016C1.92 38.744 3.552 34.232 6.96 31.016C10.224 27.896 14.832 26.264 19.584 26.264C24.336 26.264 28.944 27.896 32.208 31.016C35.616 34.232 37.248 38.744 37.248 43.016ZM19.584 34.328C17.28 34.328 14.832 35.144 13.104 36.872C11.376 38.552 10.56 40.904 10.56 43.16C10.56 45.992 11.904 47.96 13.104 49.112C14.64 50.6 16.8 51.656 19.584 51.656C22.416 51.656 24.528 50.648 26.016 49.16C27.504 47.672 28.608 45.464 28.608 43.016C28.608 40.52 27.504 38.312 26.016 36.872C24.24 35.192 21.792 34.328 19.584 34.328ZM42.5475 26.984H50.8515V45.944C50.8515 47.288 50.8995 49.352 52.4835 50.888C53.4435 51.8 54.9795 52.424 56.4195 52.424C57.8595 52.424 59.3475 51.848 60.2595 51.032C62.1795 49.352 62.1315 47 62.1315 45.224V26.984H70.4355V45.368C70.4355 48.728 70.2915 52.232 66.8355 55.736C64.1475 58.472 60.7875 59.72 56.2755 59.72C51.2355 59.72 47.6355 57.992 45.6675 55.88C42.8835 52.856 42.5475 48.776 42.5475 45.368V26.984ZM96.0533 34.04H89.2373V59H80.9333V34.04H74.1173V26.984H96.0533V34.04ZM96.375 67.544V61.208H120.375V67.544H96.375ZM124.503 26.984H128.055V55.64H136.887V59H124.503V26.984ZM163.114 59L159.37 49.976H145.738L141.898 59H137.962L152.698 25.448L167.05 59H163.114ZM147.13 46.616H157.978L152.602 33.8L147.13 46.616ZM171.566 26.984H177.326C179.102 26.984 182.318 27.128 184.67 29C185.678 29.768 187.55 31.736 187.55 35.624C187.55 37.208 187.214 39.992 184.382 41.912C188.846 43.016 190.478 46.904 190.478 49.976C190.478 53.048 188.942 55.544 187.214 56.888C184.67 58.904 181.742 59 179.534 59H171.566V26.984ZM175.118 30.344V41.048H177.806C179.678 41.048 184.094 40.664 184.094 35.72C184.094 30.44 178.91 30.344 177.902 30.344H175.118ZM175.118 44.216V55.64H179.198C181.262 55.64 183.278 55.496 184.814 54.296C186.062 53.384 186.926 51.8 186.926 49.88C186.926 47.336 185.438 45.848 184.19 45.176C182.99 44.504 181.31 44.216 178.766 44.216H175.118Z" fill="white"/>
</g>
</g>
<defs>
<filter id="filter0_d_201_122" x="-2.07996" y="25.448" width="196.557" height="50.0959" filterUnits="userSpaceOnUse" color-interpolation-filters="sRGB">
<feFlood flood-opacity="0" result="BackgroundImageFix"/>
<feColorMatrix in="SourceAlpha" type="matrix" values="0 0 0 0 0 0 0 0 0 0 0 0 0 0 0 0 0 0 127 0" result="hardAlpha"/>
<feOffset dy="4"/>
<feGaussianBlur stdDeviation="2"/>
<feComposite in2="hardAlpha" operator="out"/>
<feColorMatrix type="matrix" values="0 0 0 0 0 0 0 0 0 0 0 0 0 0 0 0 0 0 0.6 0"/>
<feBlend mode="normal" in2="BackgroundImageFix" result="effect1_dropShadow_201_122"/>
<feBlend mode="normal" in="SourceGraphic" in2="effect1_dropShadow_201_122" result="shape"/>
</filter>
<clipPath id="clip0_201_122">
<rect width="193" height="85" fill="white"/>
</clipPath>
</defs>
</svg>
